<?xml version="1.0" encoding="utf-8"?>
<!-- Generator: Adobe Illustrator 19.0.0, SVG Export Plug-In . SVG Version: 6.00 Build 0)  -->
<svg version="1.1" id="Layer_1" xmlns="http://www.w3.org/2000/svg" xmlns:xlink="http://www.w3.org/1999/xlink" x="0px" y="0px"
	 viewBox="-55 147 500 500" style="enable-background:new -55 147 500 500;" xml:space="preserve">
<path d="M279.7,339.2c-26.1,63-52.2,125.9-78.3,188.8c-3,0-5.8,0-8.7,0c-25.6-63.4-51.2-126.7-76.7-190c-0.2,0-0.5,0.1-0.7,0.1
	c-9.8,61-19.6,122.1-29.3,183.2c-10.3,0-20.2,0-30.7,0c16.4-83.4,32.8-166.5,49.3-249.9c3.5,0,6.9,0,10.5,0
	c28.1,67.1,56.3,134.3,84.4,201.4c0.2,0,0.5,0.1,0.7,0.1c27.6-67.2,55.2-134.4,82.8-201.6c3.5,0,6.8,0,10.4,0
	c15.5,83.3,31,166.5,46.6,250c-10.9,0-21.4,0-32.5,0c-4.7-30.2-9-60.6-13.5-90.9c-4.5-30.4-9-60.7-13.4-91.1
	C280.3,339.3,280,339.3,279.7,339.2L279.7,339.2z"/>
</svg>
