    
<svg version="1.1" id="Layer_1" xmlns="http://www.w3.org/2000/svg" xmlns:xlink="http://www.w3.org/1999/xlink" x="0px" y="0px"
	 viewBox="-541.1 263.3 649.3 75.5" style="enable-background:new -541.1 263.3 649.3 75.5;" xml:space="preserve">
<style type="text/css">
	.st0{fill:#98C5F7;}
	.st1{fill:#EBF4FD;}
</style>
<g>
	<g>
		<path class="st0" d="M-538.7,263.3c-1.4,0-2.4,0.9-2.4,2.4l0,70.7c0,1.4,0.9,2.4,2.4,2.4l37.7,0c0.2,0,0.7,0,0.9-0.2
			c0.2-0.2,0.5-0.2,0.7-0.5l18.9-18.9c0.2-0.2,0.5-0.5,0.5-0.7c0.2-0.2,0.2-0.7,0.2-0.9l0-51.9c0-1.4-0.9-2.4-2.4-2.4L-538.7,263.3z
			 M-536.3,268l51.9,0l0,47.2H-501c-1.4,0-2.4,0.9-2.4,2.4V334l-33,0L-536.3,268z M-487.8,319.9l-10.8,10.8l0-10.8H-487.8z"/>
		<path class="st0" d="M-524.5,284.5l28.3,0c1.4,0,2.4-0.9,2.4-2.4c0-1.4-0.9-2.4-2.4-2.4l-28.3,0c-1.4,0-2.4,0.9-2.4,2.4
			C-526.9,283.6-526,284.5-524.5,284.5z"/>
		<path class="st0" d="M-524.5,296.3l28.3,0c1.4,0,2.4-0.9,2.4-2.4c0-1.4-0.9-2.4-2.4-2.4l-28.3,0c-1.4,0-2.4,0.9-2.4,2.4
			C-526.9,295.3-526,296.3-524.5,296.3z"/>
		<path class="st0" d="M-524.5,308.1l28.3,0c1.4,0,2.4-0.9,2.4-2.4c0-1.4-0.9-2.4-2.4-2.4l-28.3,0c-1.4,0-2.4,0.9-2.4,2.4
			C-526.9,307.1-526,308.1-524.5,308.1z"/>
		<path class="st0" d="M-515.1,315.1h-9.4c-1.4,0-2.4,0.9-2.4,2.4c0,1.4,0.9,2.4,2.4,2.4h9.4c1.4,0,2.4-0.9,2.4-2.4
			S-513.7,315.1-515.1,315.1z"/>
	</g>
	<g>
		<path class="st0" d="M105.7,267.4l-77.5,0c-1.5,0-2.6,1-2.6,2.6l0,62c0,1.5,1,2.6,2.6,2.6l77.5,0c1.5,0,2.6-1,2.6-2.6l0-62
			C108.3,268.5,107.2,267.4,105.7,267.4z M103.1,277.8l-62,0l0-5.2l62,0L103.1,277.8z M36,272.6l0,5.2h-5.2l0-5.2H36z M30.8,329.4
			l0-46.5l72.3,0l0,46.5L30.8,329.4z"/>
		<path class="st0" d="M95.4,288.1l-56.8,0c-1.5,0-2.6,1-2.6,2.6l0,10.3c0,1.5,1,2.6,2.6,2.6l56.8,0c1.5,0,2.6-1,2.6-2.6l0-10.3
			C98,289.1,96.9,288.1,95.4,288.1z M92.8,298.4l-51.6,0l0-5.2l51.6,0L92.8,298.4z"/>
		<path class="st0" d="M46.3,306.2h-7.7c-1.5,0-2.6,1-2.6,2.6l0,12.9c0,1.5,1,2.6,2.6,2.6h7.7c1.5,0,2.6-1,2.6-2.6l0-12.9
			C48.9,307.2,47.9,306.2,46.3,306.2z M43.7,319.1h-2.6l0-7.7h2.6L43.7,319.1z"/>
		<path class="st0" d="M95.4,306.2l-41.3,0c-1.5,0-2.6,1-2.6,2.6l0,12.9c0,1.5,1,2.6,2.6,2.6l41.3,0c1.5,0,2.6-1,2.6-2.6l0-12.9
			C98,307.2,96.9,306.2,95.4,306.2z M92.8,319.1l-36.2,0l0-7.7l36.2,0L92.8,319.1z"/>
	</g>
	<g>
		<path class="st0" d="M-144.2,328l0,7.1c0,0.9,0.5,1.7,1.2,2.1s1.7,0.5,2.4,0l5.7-3.8l5.7,3.8c0.5,0.2,0.9,0.5,1.4,0.5
			s0.7,0,1.2-0.2c0.7-0.5,1.2-1.2,1.2-2.1l0-7.1l18.9,0c4,0,7.1-3.1,7.1-7.1l0-9.4l0-40.3c0-4-3.1-7.1-7.1-7.1l-37.5,0
			c-4,0-7.1,3.1-7.1,7.1l0,49.5C-151.3,324.9-148.2,328-144.2,328z M-130.1,330.6l-3.3-2.4c-0.5,0-0.9-0.2-1.4-0.2
			c-0.5,0-0.9,0.2-1.4,0.5l-3.3,2.4v-5.2h9.4L-130.1,330.6z M-104.2,320.9c0,1.4-0.9,2.4-2.4,2.4h-18.9c0-1.4-0.9-2.4-2.4-2.4h-14.1
			c-1.4,0-2.4,0.9-2.4,2.4c-1.4,0-2.4-0.9-2.4-2.4s0.9-2.4,2.4-2.4l37.7,0c0.5,0,0.9,0,1.4-0.2c0.2,0,0.2,0,0.5,0s0.5,0,0.7-0.2v2.8
			H-104.2z M-146.6,271.4c0-1.4,0.9-2.4,2.4-2.4l37.7,0c1.4,0,2.4,0.9,2.4,2.4l0,40.1c0,1.4-0.9,2.4-2.4,2.4l-37.7,0
			c-0.5,0-0.9,0-1.4,0.2c-0.2,0-0.2,0-0.5,0s-0.5,0-0.7,0.2l0-42.9H-146.6z"/>
		<path class="st0" d="M-136.5,299c0.5,0.5,1.2,0.7,1.7,0.7c0.5,0,1.2-0.2,1.7-0.7c0.9-0.9,0.9-2.4,0-3.3l-3.1-3.1l3.1-3.1
			c0.9-0.9,0.9-2.4,0-3.3s-2.4-0.9-3.3,0l-4.7,4.7c-0.9,0.9-0.9,2.4,0,3.3L-136.5,299z"/>
		<path class="st0" d="M-117.6,299c0.5,0.5,1.2,0.7,1.7,0.7c0.5,0,1.2-0.2,1.7-0.7l4.7-4.7c0.9-0.9,0.9-2.4,0-3.3l-4.7-4.7
			c-0.9-0.9-2.4-0.9-3.3,0c-0.9,0.9-0.9,2.4,0,3.3l3.1,3.1l-3.1,3.1C-118.5,296.6-118.5,298.1-117.6,299z"/>
		<path class="st0" d="M-131,304.2c0.2,0.2,0.5,0.2,0.9,0.2c0.9,0,1.7-0.5,2.1-1.4l9.4-18.9c0.5-1.2,0-2.6-0.9-3.1
			c-1.2-0.5-2.6,0-3.1,0.9l-9.4,18.9C-132.7,302.1-132.2,303.5-131,304.2z"/>
	</g>
	<g>
		<path class="st0" d="M-336,334.5c0.5,0.5,0.9,0.7,1.7,0.7s1.2-0.2,1.7-0.7l16-16l13.7,13.7c0.2,0.2,0.5,0.5,0.7,0.5h0.2h0.2
			l16.5,2.4h0.2c0.7,0,1.2-0.2,1.7-0.7c0.5-0.5,0.7-1.2,0.7-1.9l-2.4-16.5c0-0.2,0-0.2,0-0.2v-0.2c0-0.2-0.2-0.5-0.5-0.7l-13.7-13.7
			l13.7-13.7c0.9-0.9,0.9-2.4,0-3.3l-16.5-16.5c-0.9-0.9-2.4-0.9-3.3,0l-13.7,13.7l-13.7-13.7c-0.9-0.9-2.4-0.9-3.3,0l-14.1,14.1
			c-0.9,0.9-0.9,2.4,0,3.3l13.7,13.7l-16,16c-0.9,0.9-0.9,2.4,0,3.3L-336,334.5z M-296.4,328.8l7.5-7.5l1.2,8.7L-296.4,328.8z
			 M-290.5,316.3l-10.8,10.8l-12-12l10.8-10.8L-290.5,316.3z M-333.2,295.3l-5-5l10.8-10.8l5,5L-333.2,295.3z M-334.3,272.5l3.8,3.8
			l-10.8,10.8l-3.8-3.8L-334.3,272.5z M-341.4,310.2l5.4,5.4c0.5,0.5,0.9,0.7,1.7,0.7s1.2-0.2,1.7-0.7c0.9-0.9,0.9-2.4,0-3.3
			l-5.4-5.4l3.8-3.8l3.1,3.1c0.5,0.5,1.2,0.7,1.7,0.7s1.2-0.2,1.7-0.7c0.9-0.9,0.9-2.4,0-3.3l-3.1-3.1l3.8-3.8l5.4,5.4
			c0.5,0.5,1.2,0.7,1.7,0.7c0.5,0,1.2-0.2,1.7-0.7c0.9-0.9,0.9-2.4,0-3.3l-5.4-5.4l3.8-3.8l3.1,3.1c0.5,0.5,1.2,0.7,1.7,0.7
			c0.5,0,1.2-0.2,1.7-0.7c0.9-0.9,0.9-2.4,0-3.3l-3.1-3.1l3.8-3.8l5.4,5.4c0.5,0.5,0.9,0.7,1.7,0.7s1.2-0.2,1.7-0.7
			c0.9-0.9,0.9-2.4,0-3.3l-5.4-5.4l6.1-6.1l13.2,13.2l-43.9,43.9l-13.2-13.2L-341.4,310.2z"/>
	</g>
</g>
</svg>
