<?xml version="1.0" encoding="utf-8"?>
<!-- Generator: Adobe Illustrator 19.1.0, SVG Export Plug-In . SVG Version: 6.00 Build 0)  -->
<svg version="1.1" id="Layer_1" xmlns="http://www.w3.org/2000/svg" xmlns:xlink="http://www.w3.org/1999/xlink" x="0px" y="0px"
	 viewBox="-985 240 301 132" style="enable-background:new -985 240 301 132;" xml:space="preserve">
<style type="text/css">
	.st0{fill:#98C5F7;}
	.st1{fill:#EBF4FD;}
</style>
<g>
	<g>
		<path class="st0" d="M-848.9,343.4l0,5.6c0,0.8,0.4,1.3,0.9,1.7c0.6,0.4,1.3,0.4,1.9,0l4.5-3l4.5,3c0.4,0.2,0.8,0.4,1.1,0.4
			c0.4,0,0.6,0,0.9-0.2c0.6-0.4,0.9-0.9,0.9-1.7v-5.6l15,0c3.2,0,5.6-2.4,5.6-5.6v-7.5l0-32.1c0-3.2-2.4-5.6-5.6-5.6l-29.9,0
			c-3.2,0-5.6,2.4-5.6,5.6l0,39.4C-854.5,340.9-852.1,343.4-848.9,343.4z M-837.6,345.4l-2.6-1.9c-0.4,0-0.8-0.2-1.1-0.2
			c-0.4,0-0.8,0.2-1.1,0.4l-2.6,1.9v-4.1h7.5V345.4z M-817,337.7c0,1.1-0.8,1.9-1.9,1.9l-15,0c0-1.1-0.8-1.9-1.9-1.9l-11.3,0
			c-1.1,0-1.9,0.8-1.9,1.9c-1.1,0-1.9-0.8-1.9-1.9c0-1.1,0.8-1.9,1.9-1.9l30.1,0c0.4,0,0.8,0,1.1-0.2c0.2,0,0.2,0,0.4,0
			s0.4,0,0.6-0.2v2.3H-817z M-850.8,298.3c0-1.1,0.8-1.9,1.9-1.9l30.1,0c1.1,0,1.9,0.8,1.9,1.9l0,31.9c0,1.1-0.8,1.9-1.9,1.9
			l-30.1,0c-0.4,0-0.8,0-1.1,0.2c-0.2,0-0.2,0-0.4,0c-0.2,0-0.4,0-0.6,0.2l0-34.2H-850.8z"/>
		<path class="st0" d="M-842.7,320.3c0.4,0.4,0.9,0.6,1.3,0.6s0.9-0.2,1.3-0.6c0.8-0.8,0.8-1.9,0-2.6l-2.4-2.4l2.4-2.4
			c0.8-0.8,0.8-1.9,0-2.6c-0.8-0.8-1.9-0.8-2.6,0l-3.8,3.8c-0.8,0.8-0.8,1.9,0,2.6L-842.7,320.3z"/>
		<path class="st0" d="M-827.7,320.3c0.4,0.4,0.9,0.6,1.3,0.6s0.9-0.2,1.3-0.6l3.8-3.8c0.8-0.8,0.8-1.9,0-2.6l-3.8-3.8
			c-0.8-0.8-1.9-0.8-2.6,0c-0.8,0.8-0.8,1.9,0,2.6l2.4,2.4l-2.4,2.4C-828.4,318.4-828.4,319.5-827.7,320.3z"/>
		<path class="st0" d="M-838.4,324.4c0.2,0.2,0.4,0.2,0.8,0.2c0.8,0,1.3-0.4,1.7-1.1l7.5-15c0.4-0.9,0-2.1-0.8-2.4
			c-0.9-0.4-2.1,0-2.4,0.8l-7.5,15C-839.7,322.7-839.3,323.8-838.4,324.4z"/>
	</g>
</g>
<circle class="st1" cx="-701.3" cy="358.1" r="7"/>
<circle class="st1" cx="-781.4" cy="311.4" r="7"/>
<circle class="st1" cx="-772.1" cy="262.4" r="7"/>
<circle class="st1" cx="-842.4" cy="251.4" r="7"/>
<circle class="st1" cx="-960.7" cy="331.6" r="7"/>
<circle class="st1" cx="-903.7" cy="360.3" r="8.6"/>
<circle class="st1" cx="-733.1" cy="306.6" r="8.6"/>
<circle class="st1" cx="-926.4" cy="259.4" r="8.6"/>
<circle class="st1" cx="-884.4" cy="312" r="13.4"/>
<circle class="st1" cx="-772.1" cy="351.7" r="13.4"/>
</svg>
