<?xml version="1.0" encoding="utf-8"?>
<!-- Generator: Adobe Illustrator 19.1.0, SVG Export Plug-In . SVG Version: 6.00 Build 0)  -->
<svg version="1.1" id="Layer_1" xmlns="http://www.w3.org/2000/svg" xmlns:xlink="http://www.w3.org/1999/xlink" x="0px" y="0px"
	 viewBox="-985 392 301 132" style="enable-background:new -985 392 301 132;" xml:space="preserve">
<style type="text/css">
	.st0{fill:#98C5F7;}
	.st1{fill:#EBF4FD;}
</style>
<circle class="st1" cx="-701.3" cy="509.5" r="7"/>
<circle class="st1" cx="-781.4" cy="462.7" r="7"/>
<circle class="st1" cx="-772.1" cy="413.7" r="7"/>
<circle class="st1" cx="-842.4" cy="402.7" r="7"/>
<circle class="st1" cx="-960.7" cy="483" r="7"/>
<circle class="st1" cx="-903.7" cy="511.7" r="8.6"/>
<circle class="st1" cx="-733.1" cy="458" r="8.6"/>
<circle class="st1" cx="-926.4" cy="410.7" r="8.6"/>
<circle class="st1" cx="-895.1" cy="458" r="13.4"/>
<circle class="st1" cx="-772.1" cy="503.1" r="13.4"/>
<g>
	<path class="st0" d="M-848.1,495.7c0.4,0.4,0.7,0.5,1.3,0.5c0.5,0,0.9-0.2,1.3-0.5l12.4-12.4l10.6,10.6c0.2,0.2,0.4,0.4,0.5,0.4
		h0.2h0.2l12.8,1.8h0.2c0.5,0,0.9-0.2,1.3-0.5s0.5-0.9,0.5-1.5l-1.8-12.8c0-0.2,0-0.2,0-0.2v-0.2c0-0.2-0.2-0.4-0.4-0.5l-10.6-10.6
		l10.6-10.6c0.7-0.7,0.7-1.8,0-2.6l-12.8-12.8c-0.7-0.7-1.8-0.7-2.6,0l-10.6,10.6l-10.6-10.6c-0.7-0.7-1.8-0.7-2.6,0l-11,11
		c-0.7,0.7-0.7,1.8,0,2.6l10.6,10.6l-12.4,12.4c-0.7,0.7-0.7,1.8,0,2.6L-848.1,495.7z M-817.4,491.3l5.8-5.8l0.9,6.8L-817.4,491.3z
		 M-812.8,481.6l-8.4,8.4l-9.3-9.3l8.4-8.4L-812.8,481.6z M-845.9,465.4l-3.8-3.8l8.4-8.4l3.8,3.8L-845.9,465.4z M-846.8,447.6
		l2.9,2.9l-8.4,8.4l-2.9-2.9L-846.8,447.6z M-852.3,476.9l4.2,4.2c0.4,0.4,0.7,0.5,1.3,0.5c0.5,0,0.9-0.2,1.3-0.5
		c0.7-0.7,0.7-1.8,0-2.6l-4.2-4.2l2.9-2.9l2.4,2.4c0.4,0.4,0.9,0.5,1.3,0.5s0.9-0.2,1.3-0.5c0.7-0.7,0.7-1.8,0-2.6l-2.4-2.4l2.9-2.9
		l4.2,4.2c0.4,0.4,0.9,0.5,1.3,0.5s0.9-0.2,1.3-0.5c0.7-0.7,0.7-1.8,0-2.6l-4.2-4.2l2.9-2.9l2.4,2.4c0.4,0.4,0.9,0.5,1.3,0.5
		s0.9-0.2,1.3-0.5c0.7-0.7,0.7-1.8,0-2.6l-2.4-2.4l2.9-2.9l4.2,4.2c0.4,0.4,0.7,0.5,1.3,0.5c0.5,0,0.9-0.2,1.3-0.5
		c0.7-0.7,0.7-1.8,0-2.6l-4.2-4.2l4.8-4.8l10.2,10.2l-34,34l-10.2-10.2L-852.3,476.9z"/>
</g>
</svg>
