<svg xmlns="http://www.w3.org/2000/svg" id="Layer_1" style="" viewBox="-238 330.3 133.7 133.7" x="0px" y="0px" version="1.1" xmlns:xml="http://www.w3.org/XML/1998/namespace" xml:space="preserve">
<style type="text/css">
	.st0{fill:#3F3A3C;}
</style>
<g id="XMLID_2_" transform="">
	<g id="XMLID_1_">
		<g transform="">
			<path class="st0" d="M -154 380.4 c 0.4 0.3 0.5 0.8 0.4 1 V 414 c 0 0 0 0.4 -0.1 0.6 c -0.1 0.2 -0.4 0.4 -0.4 0.4 l -16.3 10.7 c 0 0 -0.2 0.2 -0.7 0.2 c -0.4 0 -0.7 -0.2 -0.7 -0.2 l -16.2 -10.6 c 0 0 -0.2 -0.1 -0.4 -0.4 c -0.2 -0.2 -0.2 -0.4 -0.2 -0.5 v -32.7 c 0.1 -0.2 0.1 -0.7 0.6 -1 c 0.7 -0.5 1.4 0 1.4 0 l 13.7 8.3 c 0.5 0.4 1.2 0.6 1.9 0.6 s 1.3 -0.2 1.8 -0.5 l 14.1 -8.6 C -154.8 380.3 -154.4 380.1 -154 380.4 Z" />
			<path class="st0" d="M -170.3 380.8 c 0 0 -0.3 0.2 -0.7 0.2 c -0.4 0.1 -0.7 -0.2 -0.7 -0.2 l -20.7 -13.5 c -0.3 -0.2 -0.7 -0.4 -1.2 -0.4 c -1 0 -1.8 0.8 -1.8 1.8 v 46.8 v 1 v 0.1 c 0 0.9 0.4 1.6 1 2.2 v 0.1 l 0.2 0.1 l 20.9 14.4 c 0.6 0.5 1.4 0.8 2.2 0.8 h 0.1 h 0.1 c 0.9 0 1.6 -0.3 2.2 -0.8 l 20.6 -14.2 l 0.1 -0.1 l 0.1 -0.1 c 0 -0.1 0.1 -0.1 0.1 -0.1 l 0.1 -0.1 c 0.6 -0.6 1 -1.4 1.1 -2.3 v -0.1 v -0.1 c 0 -0.2 0 -0.3 0 -0.5 v -0.1 v -47 c 0 -1 -0.8 -1.8 -1.8 -1.8 c -0.5 0 -0.9 0.1 -1.2 0.4 L -170.3 380.8 Z M -171.1 330.3 c 37 0 66.9 29.9 66.8 66.8 c 0 36.9 -29.9 66.8 -66.8 66.8 s -66.8 -29.9 -66.8 -66.8 S -208 330.3 -171.1 330.3 Z" />
		</g>

	</g>
</g>
</svg>