<?xml version="1.0" encoding="utf-8"?>
<!-- Generator: Adobe Illustrator 19.0.0, SVG Export Plug-In . SVG Version: 6.00 Build 0)  -->
<svg version="1.1" id="svg" xmlns="http://www.w3.org/2000/svg" xmlns:xlink="http://www.w3.org/1999/xlink" x="0px" y="0px"
	 viewBox="287 65.2 1186.4 662.8" style="enable-background:new 287 65.2 1186.4 662.8;" xml:space="preserve">
<style type="text/css">
	.st0{fill:#FFFFFF;}
	.st1{fill:#888889;stroke:#050606;stroke-miterlimit:10;}
	.st2{fill:#767677;}
	.st3{fill:#E5E9ED;stroke:#050606;stroke-miterlimit:10;}
	.st4{fill:#202021;stroke:#050606;stroke-miterlimit:10;}
	.st5{fill:#434445;stroke:#070808;stroke-miterlimit:10;}
	.st6{fill:#C7C6C6;stroke:#070808;stroke-width:2;stroke-miterlimit:10;}
	.st7{fill:#A3A3A2;stroke:#070808;stroke-miterlimit:10;}
	.st8{fill:#A3A3A2;}
	.st9{fill:#5FBB46;}
	.st10{fill:#2D2D2D;}
	.st11{fill:#CED1D3;}
	.st12{fill:#434445;}
	.st13{fill:#E5E9ED;stroke:#0D0D0D;stroke-miterlimit:10;}
	.st14{fill:#D2D6D8;}
	.st15{fill:#FFFFFF;stroke:#0D0D0D;stroke-miterlimit:10;}
	.st16{fill:#E5E9ED;stroke:#0B0B0B;stroke-miterlimit:10;}
	.st17{fill:#D1D4D6;}
	.st18{fill:#F9EFE5;stroke:#0D0D0D;stroke-miterlimit:10;}
	.st19{fill:#F3E5D4;}
	.st20{fill:#BE5532;stroke:#0D0D0D;stroke-miterlimit:10;}
	.st21{fill:#AD4025;}
	.st22{fill:none;stroke:#9B3021;stroke-linecap:round;stroke-miterlimit:10;}
	.st23{fill:#BE5532;stroke:#0B0B0B;stroke-miterlimit:10;}
	.st24{fill:#BE5532;stroke:#070808;stroke-miterlimit:10;}
	.st25{fill:#9B3021;}
</style>
<g id="background">
	<g id="XMLID_1_">
		<g>
			<rect x="277.3" y="65.2" class="st0" width="1197.1" height="662.8"/>
		</g>
		<g>
		</g>
	</g>
</g>
<g id="computer">
	<polygon class="st1" points="835.7,613.5 831.4,640.3 930.1,640.3 924.8,613.5 	"/>
	<polyline class="st2" points="835.4,620.9 834.6,626.9 926.5,626.9 925.4,619.9 835.9,619.9 	"/>
	<path class="st3" d="M1055.1,621.6H706.5c-6.8,0-12.3-5.3-12.3-11.8V350.3c0-6.5,5.5-11.8,12.3-11.8H1055c6.8,0,12.3,5.3,12.3,11.8
		v259.4C1067.4,616.3,1061.9,621.6,1055.1,621.6z"/>
	<path class="st4" d="M1057.8,575.5H700c-3.2,0-5.8-2.6-5.8-5.8V349.4c0-6.1,4.9-11,11-11h350.6c6.4,0,11.7,5.2,11.7,11.7v215.8
		C1067.4,571.2,1063.1,575.5,1057.8,575.5z"/>
	<rect x="710.3" y="351.3" class="st5" width="341" height="211.3"/>
	<path class="st6" d="M805.9,661.5l1,5.6c0.2,1.3,1.3,2.2,2.6,2.2h138.2c2.9,0,5.4-2.1,5.9-4.9v-0.1c0.2-1-0.6-1.8-1.5-1.8
		L805.9,661.5z"/>
	<path class="st7" d="M831.1,640.3l-25.4,20.3c-1.3,1.1-0.6,3.3,1.2,3.3l145.5-0.4c1.1,0,1.6-1.3,0.8-2l-23.8-21.2L831.1,640.3
		L831.1,640.3z"/>
	<path class="st8" d="M832.5,639.2l-0.6,1.3c-1,1-1.4,1.3-2,1.9l-4.7,3.7l109.2,0.4l-3-3.1c-0.4-0.4-0.9-0.8-1.2-1.2
		c-0.7-0.8-0.7-0.6-1.1-1.7v-1.3L832.5,639.2L832.5,639.2z"/>
	<path class="st8" d="M808.8,667c0.3,0.6,1.2,1.8,2,1.8h135.7c0.5,0,1.1-0.1,1.6-0.2c0.5-0.2,1.2-1.2,1.8-1.6H808.8z"/>
	<circle class="st9" cx="880.8" cy="345.8" r="1.3"/>
	<path class="st10" d="M876.7,340.7l-166.1,2.5c0,0-9.7,0.9-10.9,10.3s-1.9,118.4-3.4,138.9c-1.5,20.5,0-138.9,0-138.9
		s-1.9-13.4,14.2-13.1L876.7,340.7z"/>
	<path class="st10" d="M884.2,340.7l166.1,2.5c0,0,9.7,0.9,10.9,10.3s1.9,118.4,3.4,138.9c1.5,20.5,0-138.9,0-138.9
		s1.9-13.4-14.2-13.1L884.2,340.7z"/>
	<path class="st11" d="M1050.9,620.6H709.6c-10.5,1-14.1-5.4-14.2-8.6l0,0c1.4,0.4,2.9,0.6,4.4,0.6l358.8,1.6c2.5,0,4.9-0.4,7.2-1.3
		l0,0C1064.7,616.3,1062.2,621.6,1050.9,620.6z"/>
	<path class="st12" d="M880.3,591c0.6,0,1.4,0.1,2.2,0.4c0.9,0.3,1.5,0.4,1.7,0.4c0.4,0,1-0.1,1.8-0.4c0.8-0.3,1.6-0.4,2.2-0.4
		c1,0,1.9,0.3,2.7,0.8c0.4,0.3,0.9,0.7,1.3,1.3c-0.7,0.6-1.1,1.1-1.4,1.5c-0.5,0.8-0.8,1.7-0.8,2.6c0,1,0.3,2,0.9,2.8
		c0.6,0.8,1.2,1.4,2,1.6c-0.3,1-0.8,2.1-1.5,3.2c-1.1,1.6-2.2,2.5-3.2,2.5c-0.4,0-1-0.1-1.8-0.4c-0.7-0.3-1.4-0.4-1.9-0.4
		s-1.1,0.1-1.8,0.4c-0.7,0.3-1.2,0.4-1.7,0.4c-1.3,0-2.5-1.1-3.8-3.3c-1.2-2.2-1.9-4.3-1.9-6.3c0-1.9,0.5-3.5,1.4-4.7
		C877.6,591.6,878.8,591,880.3,591L880.3,591z"/>
	<path class="st12" d="M888,586.2c0,0.1,0.1,0.2,0.1,0.3s0,0.2,0,0.2c0,0.5-0.1,1.1-0.4,1.7c-0.2,0.6-0.6,1.2-1.2,1.7
		c-0.5,0.5-0.9,0.8-1.4,0.9c-0.3,0.1-0.7,0.2-1.3,0.2c0-1.2,0.3-2.3,1-3.2C885.5,587.1,886.6,586.5,888,586.2L888,586.2z"/>
</g>
<g id="keyboard">
	<path class="st13" d="M1039.9,672H710.5v-4.8c0-4,3.2-7.2,7.2-7.2h315c4,0,7.3,3.3,7.3,7.3v4.7H1039.9z"/>
	<polygon class="st14" points="1039.1,671.1 711.3,671.1 711.4,667.8 1039.1,667.8 	"/>
	<rect x="723.8" y="658.2" width="21.4" height="1.9"/>
	<rect x="816.8" y="658.2" width="21.4" height="1.9"/>
	<rect x="839.8" y="658.1" width="95.4" height="1.9"/>
	<rect x="746.7" y="658.2" width="21.4" height="1.9"/>
	<rect x="769.8" y="658.2" width="21.4" height="1.9"/>
	<rect x="792.9" y="658.2" width="21.4" height="1.9"/>
	<rect x="937.3" y="658.1" width="21.4" height="1.9"/>
	<rect x="960.3" y="658.1" width="21.4" height="1.9"/>
	<rect x="983.3" y="658.1" width="21.4" height="1.9"/>
	<rect x="1006.5" y="658.1" width="21.4" height="1.9"/>
	<path class="st15" d="M744.2,659.1h-19.3V657c0-0.6,1-1.2,2.3-1.2h14.6c1.3,0,2.4,0.5,2.4,1.2V659.1z"/>
	<path class="st15" d="M766.9,659.1h-19.3V657c0-0.6,1-1.2,2.3-1.2h14.6c1.3,0,2.4,0.5,2.4,1.2V659.1z"/>
	<path class="st15" d="M790.2,659.1h-19.3V657c0-0.6,1-1.2,2.3-1.2h14.6c1.3,0,2.4,0.5,2.4,1.2V659.1z"/>
	<path class="st15" d="M813.3,659.1H794V657c0-0.6,1-1.2,2.3-1.2h14.6c1.3,0,2.4,0.5,2.4,1.2V659.1z"/>
	<path class="st15" d="M957.8,659.1h-19.3V657c0-0.6,1-1.2,2.3-1.2h14.6c1.3,0,2.4,0.5,2.4,1.2V659.1z"/>
	<path class="st15" d="M980.5,659.1h-19.3V657c0-0.6,1-1.2,2.3-1.2h14.6c1.3,0,2.4,0.5,2.4,1.2V659.1z"/>
	<path class="st15" d="M1003.8,659.1h-19.3V657c0-0.6,1-1.2,2.3-1.2h14.6c1.3,0,2.4,0.5,2.4,1.2V659.1z"/>
	<path class="st15" d="M1026.9,659.1h-19.3V657c0-0.6,1-1.2,2.3-1.2h14.6c1.3,0,2.4,0.5,2.4,1.2V659.1z"/>
	<path class="st15" d="M837.2,659.1h-19.3V657c0-0.6,1-1.2,2.3-1.2h14.6c1.3,0,2.4,0.5,2.4,1.2V659.1z"/>
	<path class="st15" d="M934.1,659.2h-93.6v-2.1c0-0.7,5-1.2,11.2-1.2h70.9c6.3,0,11.5,0.5,11.5,1.2V659.2z"/>
</g>
<g id="computer_mouse">
	<path class="st16" d="M1066.6,670.1c0,0,0-8.6,12.9-14.3c8.7-3.9,18.7-4,27.5-0.6c6.8,2.6,13.7,7.2,13.7,15L1066.6,670.1z"/>
	<path class="st17" d="M1107,655.9c-3.9-1.4-9-2.6-13.3-2.4v15.7l26.1,0.1C1119.7,665,1115.5,659,1107,655.9z"/>
</g>
<g id="coffee_mug">
	<polyline class="st18" points="1136.8,581.7 1152.1,672 1195,672 1209.4,581.7 1140.7,581.7 	"/>
	<polygon class="st19" points="1208.2,584.7 1173.1,581.7 1172.7,671.1 1194.4,671.1 	"/>
	<polygon class="st20" points="1140.3,611.9 1146.7,646.9 1199.8,646.9 1205.9,611.9 	"/>
	<polygon class="st21" points="1204.8,612.9 1173.2,612.9 1173.1,646.1 1199.2,646.1 	"/>
	<line class="st22" x1="1145.3" y1="616.4" x2="1201.7" y2="616.4"/>
	<line class="st22" x1="1147.1" y1="623.1" x2="1200.7" y2="623.1"/>
	<line class="st22" x1="1148.1" y1="631" x2="1198.6" y2="631"/>
	<line class="st22" x1="1149.1" y1="638.3" x2="1197.5" y2="638.3"/>
	<line class="st22" x1="1149" y1="643.9" x2="1196.5" y2="643.9"/>
	<polygon class="st23" points="1132.3,589.7 1213.2,589.7 1213.2,581.7 1136.8,581.7 1132.3,581.7 	"/>
	<polygon class="st24" points="1138.8,571.1 1136.8,581.7 1208.2,581.7 1205.9,571.1 	"/>
	<polygon class="st21" points="1212.2,582.7 1207,582.7 1173.7,582.7 1173.7,588.8 1212.2,589 	"/>
	<polygon class="st21" points="1207,580.9 1205.2,571.9 1173.8,572 1173.8,580.9 	"/>
	<polygon class="st25" points="1137.9,580.9 1138.2,578.9 1206.6,578.9 1207,580.9 	"/>
</g>
</svg>
